#!OML:ASF E:\emotionWalksFemale\Project 1\Capture day 1\Session 1\Female1.ASF
:FULLY-SPECIFIED
:DEGREES
1448
root 11.0131 15.3903 -36.6683 362.052 -18.7405 -359.22
lowerback 4.71979 1.93496 -0.70669
upperback -4.63473 2.68802 2.3329
thorax -7.65488 1.4295 2.5428
lowerneck -1.42136 3.75271 3.78627
upperneck 1.24921 4.98068 -3.16223
head 0.810459 2.48182 -1.5578
rclavicle 2.54444e-014 1.74931e-014
rhumerus -34.4643 8.29259 -88.291
rradius 29.9655
rwrist 24.8258
rhand 0.299956 -53.5892
rfingers 7.12502
rthumb 25.8776 -81.8484
lclavicle 2.54444e-014 1.74931e-014
lhumerus -37.6553 -11.8703 94.1531
lradius 36.6762
lwrist -14.4984
lhand -3.55422 -32.7216
lfingers 7.12502
lthumb 22.182 -3.97434
rfemur -6.00734 7.03183 20.116
rtibia 30.7059
rfoot -26.4916 -24.6447
rtoes 1.39785
lfemur -12.1892 -12.0869 -24.2609
ltibia 29.7386
lfoot -21.9149 6.59434
ltoes -34.0528
1449
root 10.9997 15.3883 -36.687 362.342 -18.1569 -359.211
lowerback 4.61138 2.00302 -0.962988
upperback -4.86254 2.75938 2.2883
thorax -7.85192 1.48092 2.63238
lowerneck -1.35359 3.55965 3.64545
upperneck 1.45321 4.72609 -2.87462
head 0.84068 2.35729 -1.44555
rclavicle 1.48095e-014 -2.62396e-014
rhumerus -34.9619 7.92878 -88.1272
rradius 29.9588
rwrist 24.9195
rhand 0.549866 -53.5366
rfingers 7.12502
rthumb 26.1169 -81.7606
lclavicle 1.48095e-014 -2.62396e-014
lhumerus -37.9832 -12.0066 94.1524
lradius 36.8564
lwrist -14.9669
lhand -5.22384 -32.3805
lfingers 7.12502
lthumb 20.5783 -3.45122
rfemur -6.21572 8.11884 20.351
rtibia 30.673
rfoot -26.4873 -24.4609
rtoes -0.0882939
lfemur -12.7463 -12.1599 -24.0861
ltibia 29.9356
lfoot -22.1081 6.02113
ltoes -34.574
1450
root 10.9848 15.3843 -36.6958 362.388 -17.6865 -359.233
lowerback 4.53774 2.05983 -1.08217
upperback -4.9508 2.8244 2.24204
thorax -7.91174 1.5196 2.64417
lowerneck -1.31766 3.42813 3.34518
upperneck 1.66574 4.55248 -2.45815
head 0.87455 2.27331 -1.26361
rclavicle 1.00386e-014 2.38542e-014
rhumerus -35.4496 7.77998 -88.0627
rradius 29.9925
rwrist 24.9191
rhand 0.722777 -53.5111
rfingers 7.12502
rthumb 26.2825 -81.7105
lclavicle 1.00386e-014 2.38542e-014
lhumerus -38.4173 -12.1363 94.1799
lradius 37.1189
lwrist -14.8472
lhand -1.37062 -32.6973
lfingers 7.12502
lthumb 24.2769 -4.21437
rfemur -6.11149 9.32299 20.6509
rtibia 30.562
rfoot -26.1114 -24.4631
rtoes -0.171668
lfemur -12.9524 -12.3607 -23.9584
ltibia 30.1176
lfoot -22.0626 6.09682
ltoes -34.7005
1451
root 10.974 15.3824 -36.7085 362.419 -16.8386 -359.292
lowerback 4.13832 1.94001 -1.04751
upperback -4.80958 2.66334 2.24317
thorax -7.51487 1.43519 2.65798
lowerneck -1.16075 3.31335 2.94831
upperneck 1.52928 4.40366 -2.137
head 0.781316 2.19994 -1.10041
rclavicle -1.3418e-014 -3.49861e-014
rhumerus -35.5491 7.90243 -87.9751
rradius 30.0453
rwrist 24.9672
rhand 1.18244 -53.8449
rfingers 7.12502
rthumb 26.7225 -81.978
lclavicle -1.3418e-014 -3.49861e-014
lhumerus -38.432 -12.2676 94.1974
lradius 37.1218
lwrist -13.8615
lhand -5.95255 -31.7055
lfingers 7.12502
lthumb 19.878 -2.7021
rfemur -5.93867 10.2783 21.0267
rtibia 30.3895
rfoot -25.8359 -24.9715
rtoes -0.454531
lfemur -13.1901 -12.6238 -23.7774
ltibia 30.2616
lfoot -21.9826 5.78025
ltoes -35.2501
1452
root 10.9736 15.3819 -36.7231 362.402 -15.478 -359.29
lowerback 3.95374 1.68402 -0.79585
upperback -4.72468 2.32951 2.12969
thorax -7.27928 1.25162 2.43897
lowerneck -1.76432 3.23816 2.50341
upperneck 2.26521 4.29168 -1.55867
head 1.08325 2.14586 -0.831933
rclavicle -3.69739e-014 -2.38542e-014
rhumerus -35.6509 7.85619 -87.9092
rradius 30.1075
rwrist 24.9748
rhand 1.80045 -54.1736
rfingers 7.12502
rthumb 27.3137 -82.215
lclavicle -3.69739e-014 -2.38542e-014
lhumerus -38.1762 -12.4302 93.9318
lradius 37.1381
lwrist -13.9489
lhand -3.76599 -31.4804
lfingers 7.12502
lthumb 21.9787 -2.70907
rfemur -5.68389 10.6194 21.3091
rtibia 30.1494
rfoot -25.8741 -25.4368
rtoes -0.31973
lfemur -13.4637 -13.0922 -23.6838
ltibia 30.3956
lfoot -21.851 5.11817
ltoes -36.6889
1453
root 10.96 15.3797 -36.7392 362.36 -14.9342 -359.287
lowerback 3.80302 1.7098 -0.866873
upperback -4.61943 2.3529 2.06059
thorax -7.08005 1.26314 2.40866
lowerneck -1.94208 2.99129 2.73191
upperneck 2.5185 3.95965 -1.78744
head 1.19805 1.9789 -0.94399
rclavicle -3.3048e-014 7.95139e-015
rhumerus -35.7333 7.77101 -87.8696
rradius 30.1551
rwrist 24.8554
rhand 2.2618 -54.4302
rfingers 7.12502
rthumb 27.7549 -82.4013
lclavicle -3.3048e-014 7.95139e-015
lhumerus -38.503 -12.0859 93.6678
lradius 37.5461
lwrist -13.8209
lhand -2.17541 -31.3136
lfingers 7.12502
lthumb 23.5051 -2.72964
rfemur -5.49124 11.4698 21.5446
rtibia 29.8391
rfoot -25.6394 -25.479
rtoes 0.958195
lfemur -13.5889 -13.0724 -23.5988
ltibia 30.5053
lfoot -21.7868 4.67211
ltoes -36.9819
1454
root 10.9488 15.3719 -36.7587 362.245 -14.0777 -359.289
lowerback 4.42322 1.68318 -0.920253
upperback -4.88444 2.3142 1.97976
thorax -7.7219 1.2501 2.33935
lowerneck -2.61296 2.93693 2.30403
upperneck 3.59731 3.87088 -1.13038
head 1.62869 1.94114 -0.653121
rclavicle 7.7526e-015 1.11319e-014
rhumerus -36.3796 7.45072 -87.7574
rradius 30.2205
rwrist 24.9242
rhand 2.48618 -54.1764
rfingers 7.12502
rthumb 27.9695 -82.1128
lclavicle 7.7526e-015 1.11319e-014
lhumerus -38.6097 -12.2863 93.5069
lradius 37.3211
lwrist -13.2533
lhand -0.33912 -31.4348
lfingers 7.12502
lthumb 25.2655 -3.08782
rfemur -5.16739 12.1536 21.8489
rtibia 29.5238
rfoot -25.5919 -25.7432
rtoes 2.91887
lfemur -13.6827 -13.4363 -23.5149
ltibia 30.5986
lfoot -21.6446 4.3126
ltoes -37.0008
1455
root 10.9312 15.3731 -36.7661 362.362 -13.0074 -359.216
lowerback 4.44049 1.57393 -0.960985
upperback -5.15811 2.15732 1.82211
thorax -8.01348 1.17414 2.21143
lowerneck -2.39677 2.79848 2.07461
upperneck 3.83134 3.68298 -0.688084
head 1.6463 1.85431 -0.482346
rclavicle 8.44835e-015 7.15625e-015
rhumerus -37.0589 6.92112 -87.6349
rradius 30.334
rwrist 25.1619
rhand 2.3573 -53.1192
rfingers 7.12502
rthumb 27.8462 -81.0756
lclavicle 8.44835e-015 7.15625e-015
lhumerus -39.1476 -12.4081 93.426
lradius 37.1964
lwrist -13.7689
lhand -1.22815 -31.9454
lfingers 7.12502
lthumb 24.4135 -3.48085
rfemur -4.9909 12.6372 22.1024
rtibia 29.2214
rfoot -25.7004 -26.3954
rtoes 6.06482
lfemur -13.986 -13.8894 -23.432
ltibia 30.6553
lfoot -21.5653 3.8647
ltoes -37.7856
1456
root 10.9166 15.3731 -36.7761 362.414 -12.7018 -359.175
lowerback 3.8494 1.68937 -1
upperback -4.96989 2.30004 1.71903
thorax -7.46922 1.23915 2.12553
lowerneck -1.67024 2.51836 2.5163
upperneck 3.05381 3.32694 -1.19111
head 1.2869 1.67224 -0.733738
rclavicle -1.4561e-014 -8.74653e-015
rhumerus -37.0541 6.52863 -87.4395
rradius 30.4062
rwrist 25.3076
rhand 1.96443 -51.8899
rfingers 7.12502
rthumb 27.4706 -79.9065
lclavicle -1.4561e-014 -8.74653e-015
lhumerus -39.0883 -12.4369 93.2315
lradius 37.1259
lwrist -14.335
lhand -3.05319 -32.0937
lfingers 7.12502
lthumb 22.6629 -3.40432
rfemur -4.90869 13.122 22.2365
rtibia 28.9576
rfoot -25.3651 -26.9399
rtoes 8.82614
lfemur -14.1319 -13.9939 -23.386
ltibia 30.682
lfoot -21.6527 3.7445
ltoes -38.0453
1457
root 10.9048 15.365 -36.7901 362.232 -11.7896 -359.118
lowerback 3.87586 1.60214 -1.08645
upperback -4.87896 2.17428 1.68997
thorax -7.38309 1.18008 2.15691
lowerneck -2.04126 2.40991 2.22666
upperneck 3.53674 3.17234 -0.857061
head 1.48866 1.59794 -0.577683
rclavicle -1.6201e-014 4.77083e-015
rhumerus -37.155 6.40617 -87.2404
rradius 30.4209
rwrist 25.1074
rhand 1.76101 -51.3086
rfingers 7.12502
rthumb 27.276 -79.3559
lclavicle -1.6201e-014 4.77083e-015
lhumerus -39.0526 -12.0341 92.9673
lradius 37.4187
lwrist -13.495
lhand -1.31706 -31.6302
lfingers 7.12502
lthumb 24.3283 -3.15417
rfemur -4.47428 13.1463 22.4766
rtibia 28.6845
rfoot -25.2708 -27.861
rtoes 10.8762
lfemur -14.1184 -14.3071 -23.3833
ltibia 30.6993
lfoot -21.7065 3.29284
ltoes -38.0765
1458
root 10.8897 15.3639 -36.8256 362.333 -10.591 -359.036
lowerback 4.06978 1.40986 -1.25451
upperback -4.98976 1.90261 1.65641
thorax -7.60646 1.05722 2.23965
lowerneck -2.14831 2.25509 1.94765
upperneck 3.82212 2.96463 -0.620834
head 1.58525 1.49572 -0.459101
rclavicle -1.02374e-014 -2.38542e-015
rhumerus -37.3241 6.33497 -87.1033
rradius 30.4749
rwrist 24.647
rhand 1.70473 -51.2107
rfingers 7.12502
rthumb 27.2222 -79.2665
lclavicle -1.02374e-014 -2.38542e-015
lhumerus -39.0203 -11.6924 92.7642
lradius 37.3708
lwrist -13.206
lhand -0.5697 -31.3336
lfingers 7.12502
lthumb 25.0446 -2.95557
rfemur -4.40744 12.9795 22.6601
rtibia 28.4319
rfoot -25.2341 -28.7477
rtoes 12.6602
lfemur -14.5682 -14.5275 -23.26
ltibia 30.7267
lfoot -21.5594 2.35245
ltoes -38.2502
